# xmcd CD database file
#
# Track frame offsets:
#	150
#	27000
#	91673
#	105824
#	140999
#	169124
#	202499
#	224849
#	257849
#	278804
#	294629
#
# Disc length: 4189 seconds
#
# Revision: 0
# Processed by: cddbd v1.5.2PL0 Copyright (c) Steve Scherf et al.
# Submitted via: CDex 1.70beta2
#
DISCID=ac105b0b
DTITLE=Hank Crawford and Duke Ellington - Hank and Duke
DYEAR=2009
DGENRE=Jazz
TTITLE0=Breezin' - Hank Crawford
TTITLE1=Diminuendo In Blue And Crescendo In Blue (Live) - Duke Ellington
TTITLE2=Don't Get Around Much Anymore - Duke Ellington
TTITLE3=Don't Start Nuttin', Won't Be Nuttin' - Hank Crawford
TTITLE4=Everything I Have Is Yours - Hank Crawford
TTITLE5=I Had A Dream - Hank Crawford
TTITLE6=If It's The Last Thing I Do - Hank Crawford
TTITLE7=Little Sunflower - Hank Crawford
TTITLE8=Manhattan Blues - Hank Crawford
TTITLE9=Mona Lisa - Hank Crawford
TTITLE10=Take The 'A' Train - Duke Ellington
EXTD=YEAR: 2009
EXTT0=
EXTT1=
EXTT2=
EXTT3=
EXTT4=
EXTT5=
EXTT6=
EXTT7=
EXTT8=
EXTT9=
EXTT10=
PLAYORDER=
